<?xml version="1.0" standalone="no"?>
<!DOCTYPE svg PUBLIC "-//W3C//DTD SVG 1.1//EN" "http://www.w3.org/Graphics/SVG/1.1/DTD/svg11.dtd" >
<svg xmlns="http://www.w3.org/2000/svg" xmlns:xlink="http://www.w3.org/1999/xlink" version="1.1">
<metadata>
Created by FontForge 20201107 at Sat Aug 21 13:42:15 2021
 By Jimmy Wärting
Copyright (c) 2021, acer
</metadata>
<defs>
<font id="savec" horiz-adv-x="643" >
  <font-face 
    font-family="savec"
    font-weight="400"
    font-stretch="normal"
    units-per-em="1000"
    panose-1="2 0 5 3 0 0 0 0 0 0"
    ascent="800"
    descent="-200"
    x-height="584"
    cap-height="933"
    bbox="33 -316 1108 1142"
    underline-thickness="50"
    underline-position="-100"
    unicode-range="U+0020-017E"
  />
<missing-glyph horiz-adv-x="364" 
d="M33 0v666h265v-666h-265zM66 33h199v600h-199v-600z" />
    <glyph glyph-name=".notdef" horiz-adv-x="364" 
d="M33 0v666h265v-666h-265zM66 33h199v600h-199v-600z" />
    <glyph glyph-name=".null" horiz-adv-x="0" 
 />
    <glyph glyph-name="nonmarkingreturn" horiz-adv-x="333" 
 />
    <glyph glyph-name="space" unicode=" " horiz-adv-x="300" 
 />
    <glyph glyph-name="exclam" unicode="!" horiz-adv-x="153" 
d="M114 81v-81h-74v81h74zM47 933h60l-7 -819h-47z" />
    <glyph glyph-name="quotedbl" unicode="&#x22;" horiz-adv-x="220" 
d="M100 933l-6 -162h-48l-6 162h60zM180 933l-6 -162h-47l-6 162h59z" />
    <glyph glyph-name="numbersign" unicode="#" horiz-adv-x="774" 
d="M40 0l149 353h-104v59h129l46 109h-141v59h167l149 353h64l-149 -353h171l149 353h65l-149 -353h104v-59h-130l-46 -109h142v-59h-167l-149 -353h-65l150 353h-171l-149 -353h-65zM450 412l46 109h-171l-46 -109h171z" />
    <glyph glyph-name="dollar" unicode="$" horiz-adv-x="710" 
d="M326 922v71h59v-71h115q57 0 97 -40t40 -97h-59q0 32 -23 55q-23 22 -55 22h-115v-390l197 -115q41 -25 65 -66.5t24 -89.5v-32q0 -74 -53 -127.5t-128 -53.5h-105v-71h-59v71h-115q-57 0 -97 41q-40 40 -40 97h59q0 -33 23 -55q23 -23 55 -23h115v390l-197 116
q-41 24 -65 66t-24 90v31q0 75 53 128t128 53h105zM385 403v-355h105q50 0 85.5 35.5t35.5 85.5v32q0 32 -16 60t-43 44zM326 862h-105q-50 0 -86 -35.5t-36 -85.5v-31q0 -33 16.5 -61t43.5 -44l167 -98v355z" />
    <glyph glyph-name="percent" unicode="%" horiz-adv-x="684" 
d="M515 933h64l-394 -933h-65zM154 824q47 0 80.5 -33.5t33.5 -80.5v-135q0 -47 -33.5 -80t-80.5 -33t-80.5 33t-33.5 80v135q0 47 33.5 80.5t80.5 33.5zM153.5 764q-22.5 0 -38 -16t-15.5 -38v-135q0 -22 15.5 -38t38 -16t38.5 16t16 38v135q0 22 -16 38t-38.5 16zM530 441
q47 0 80.5 -33.5t33.5 -80.5v-135q0 -47 -33.5 -80.5t-80.5 -33.5t-80.5 33.5t-33.5 80.5v135q0 47 33.5 80.5t80.5 33.5zM530.5 381q-22.5 0 -38.5 -16t-16 -38v-135q0 -22 16 -38t38.5 -16t38 16t15.5 38v135q0 22 -15.5 38t-38 16z" />
    <glyph glyph-name="ampersand" unicode="&#x26;" horiz-adv-x="736" 
d="M108 514l-30 34q-38 42 -38 98v106q0 61 43 104.5t105 43.5h279q56 0 96.5 -40.5t40.5 -97.5h-60q0 33 -22.5 55.5t-54.5 22.5h-279q-37 0 -63 -25.5t-26 -62.5v-106q0 -33 23 -59l418 -465q4 13 4 25v353h60v-353q0 -39 -20 -73l113 -125l-44 -40l-109 120
q-39 -29 -88 -29h-268q-62 0 -105 43t-43 104v252q0 55 38 93q13 13 30 22zM150 467q-17 -5 -30 -17q-21 -21 -21 -51v-252q0 -36 26 -61.5t63 -25.5h268q26 0 48 14z" />
    <glyph glyph-name="quotesingle" unicode="'" horiz-adv-x="139" 
d="M99 933l-6 -162h-47l-6 162h59z" />
    <glyph glyph-name="parenleft" unicode="(" horiz-adv-x="324" 
d="M220 -74l-100 185q-80 149 -80 318.5t80 318.5l100 185h65q-54 -100 -114 -212q-74 -136 -74 -291t74 -292l114 -212h-65z" />
    <glyph glyph-name="parenright" unicode=")" horiz-adv-x="324" 
d="M105 -74h-65q54 100 114 212q74 137 74 292t-74 291l-114 212h65l100 -185q80 -149 80 -318.5t-80 -318.5z" />
    <glyph glyph-name="asterisk" unicode="*" horiz-adv-x="518" 
d="M289 771l156 106l33 -49l-166 -113l166 -113l-33 -49l-156 106v-163h-59v163l-156 -106l-34 49l166 113l-166 113l34 49l156 -106v162h59v-162z" />
    <glyph glyph-name="plus" unicode="+" horiz-adv-x="416" 
d="M238 424h138v-60h-138v-138h-60v138h-138v60h138v138h60v-138z" />
    <glyph glyph-name="comma" unicode="," horiz-adv-x="198" 
d="M128 81h30v-87l-76 -76l-42 43l39 39h-25v81h74z" />
    <glyph glyph-name="hyphen" unicode="-" horiz-adv-x="416" 
d="M376 413h-336v59h336v-59z" />
    <glyph glyph-name="period" unicode="." horiz-adv-x="153" 
d="M40 0v81h74v-81h-74z" />
    <glyph glyph-name="slash" unicode="/" horiz-adv-x="539" 
d="M105 0h-65l395 933h64z" />
    <glyph glyph-name="zero" unicode="0" 
d="M187 0q-61 0 -104 43t-43 104v639q0 61 43 104t104 43h269q61 0 104.5 -43t43.5 -104v-639q0 -61 -43.5 -104t-104.5 -43h-269zM187 60h269q37 0 62.5 25.5t25.5 61.5v639q0 36 -25.5 62t-62.5 26h-269q-36 0 -61.5 -26t-25.5 -62v-639q0 -36 25.5 -61.5t61.5 -25.5z" />
    <glyph glyph-name="one" unicode="1" horiz-adv-x="217" 
d="M177 933v-933h-59v793q-35 -24 -78 -24v60q32 0 55 22.5t23 55.5v26h59z" />
    <glyph glyph-name="two" unicode="2" horiz-adv-x="710" 
d="M671 0h-601q-20 0 -27.5 18t5.5 32q399 423 530 561q33 36 33 84v57q0 51 -35.5 86.5t-85.5 35.5h-279q-32 0 -55 -23t-23 -55h-59q0 57 40 97t97 40h279q75 0 128 -53t53 -128v-57q0 -72 -50 -124q-267 -283 -482 -511h532v-60z" />
    <glyph glyph-name="three" unicode="3" horiz-adv-x="613" 
d="M141 437v59h286q36 0 61.5 26t25.5 62v202q0 36 -25.5 62t-61.5 26h-387v59h387q61 0 104 -43t43 -104v-202q0 -61 -43 -104q-7 -7 -16 -13q9 -6 16 -14q43 -43 43 -104v-202q0 -61 -43 -104t-104 -43h-387v60h387q36 0 61.5 25.5t25.5 61.5v202q0 36 -25.5 62t-61.5 26
h-286z" />
    <glyph glyph-name="four" unicode="4" 
d="M544 407q-7 -10 -14 -17q-40 -41 -97 -41h-212q-75 0 -128 53.5t-53 127.5v404h59v-404q0 -50 36 -85.5t86 -35.5h212q32 0 55 23q23 22 23 55h33v447h60v-934h-60v407z" />
    <glyph glyph-name="five" unicode="5" 
d="M574 933v-59h-387q-36 0 -62 -26t-26 -62v-290h357q61 0 104.5 -43t43.5 -104v-202q0 -61 -43.5 -104t-104.5 -43h-386v60h386q37 0 62.5 25.5t25.5 61.5v202q0 36 -25.5 62t-62.5 26h-416v349q0 61 43 104t104 43h387z" />
    <glyph glyph-name="six" unicode="6" 
d="M100 527q6 9 14 17q40 40 97 40h212q75 0 128 -53t53 -128v-222q0 -75 -53 -128t-128 -53h-202q-75 0 -128 53t-53 128v571q0 75 53 128t128 53h383v-59h-383q-50 0 -85.5 -35.5t-35.5 -86.5v-225zM100 447v-266q0 -50 35.5 -85.5t85.5 -35.5h202q50 0 85.5 35.5
t35.5 85.5v222q0 50 -35.5 85.5t-85.5 35.5h-212q-32 0 -55 -22.5t-23 -54.5h-33z" />
    <glyph glyph-name="seven" unicode="7" horiz-adv-x="666" 
d="M40 0l524 874h-501v59h564v-71l-517 -862h-70z" />
    <glyph glyph-name="eight" unicode="8" 
d="M122 500q-15 10 -29 24q-53 53 -53 128v100q0 75 53 128t128 53h202q75 0 128 -53t53 -128v-100q0 -75 -53 -128q-14 -14 -29 -24q15 -9 29 -23q53 -53 53 -128v-168q0 -75 -53 -128t-128 -53h-202q-75 0 -128 53t-53 128v168q0 75 53 128q14 14 29 23zM221 471
q-50 0 -86 -36t-36 -86v-168q0 -50 36 -85.5t86 -35.5h202q50 0 85.5 35.5t35.5 85.5v168q0 50 -35.5 86t-85.5 36h-202zM423 530q50 0 85.5 35.5t35.5 86.5v100q0 51 -35.5 86.5t-85.5 35.5h-202q-50 0 -86 -35.5t-36 -86.5v-100q0 -51 36 -86.5t86 -35.5h202z" />
    <glyph glyph-name="nine" unicode="9" 
d="M544 407q-19 -27 -48 -42t-63 -15h-212q-75 0 -128 53t-53 128v221q0 75 53 128t128 53h202q75 0 128 -53t53 -128v-571q0 -75 -53 -128t-128 -53h-383v60h383q50 0 85.5 35.5t35.5 85.5v226zM544 487v265q0 51 -35.5 86.5t-85.5 35.5h-202q-50 0 -85.5 -35.5
t-35.5 -86.5v-221q0 -51 35.5 -86.5t85.5 -35.5h212q32 0 55 23t23 55h33z" />
    <glyph glyph-name="colon" unicode=":" horiz-adv-x="184" 
d="M144 365v-84h-104v84h104zM144 482v-84h-104v84h104z" />
    <glyph glyph-name="semicolon" unicode=";" horiz-adv-x="198" 
d="M128 365h30v-87l-76 -75l-42 42l39 39h-25v81h74zM159 482v-84h-105v84h105z" />
    <glyph glyph-name="equal" unicode="=" horiz-adv-x="416" 
d="M40 305v60h336v-60h-336zM40 399v60h336v-60h-336z" />
    <glyph glyph-name="question" unicode="?" horiz-adv-x="549" 
d="M114 81v-81h-74v81h74zM47 797q0 57 40 97q41 40 98 39h90t88 -1q61 0 104 -43t43 -104v-146q0 -71 -48.5 -123t-118.5 -58q-92 -7 -155 -12q-35 -2 -58 -27.5t-23 -59.5v-245h-60v245q0 57 39.5 99.5t96.5 47.5q107 8 155 12q48 3 80 38t32 83v146q0 36 -25.5 62
t-61.5 26q-26 0 -88 0.5t-91 0.5q-32 0 -55 -22q-22 -23 -22 -55h-60z" />
    <glyph glyph-name="at" unicode="@" horiz-adv-x="878" 
d="M839 34h-618q-75 0 -128 53t-53 128v537q0 75 53 128t128 53h437q75 0 128 -53t53 -128v-302q0 -75 -53 -128t-128 -53h-235q-61 0 -104.5 43t-43.5 104v101q0 61 43.5 104.5t104.5 43.5h356v87q0 51 -35.5 86.5t-85.5 35.5h-437q-50 0 -86 -35.5t-36 -86.5v-537
q0 -51 36 -86.5t86 -35.5h618v-59zM779 605h-356q-37 0 -62.5 -25.5t-25.5 -62.5v-101q0 -36 25.5 -62t62.5 -26h235q50 0 85.5 36t35.5 86v155z" />
    <glyph glyph-name="A" unicode="A" horiz-adv-x="723" 
d="M40 0l259 912q7 21 29 21h68q9 0 17 -6t11 -15l260 -912h-62l-96 336h-328l-96 -336h-62zM214 396h295l-136 478h-22z" />
    <glyph glyph-name="B" unicode="B" 
d="M545 500q59 -44 59 -117v-236q0 -61 -43.5 -104t-104.5 -43h-416v933h416q61 0 104.5 -43t43.5 -104v-168q0 -74 -59 -118zM99 471v-411h357q37 0 62.5 25.5t25.5 61.5v236q0 36 -25.5 62t-62.5 26h-357zM99 530h357q37 0 62.5 26t25.5 62v168q0 36 -25.5 62t-62.5 26
h-357v-344z" />
    <glyph glyph-name="C" unicode="C" 
d="M604 724h-60v62q0 36 -25.5 62t-62.5 26h-235q-50 0 -85.5 -35.5t-35.5 -86.5v-571q0 -50 35.5 -85.5t85.5 -35.5h235q37 0 62.5 25.5t25.5 61.5v51h60v-51q0 -61 -43.5 -104t-104.5 -43h-235q-75 0 -128 53t-53 128v571q0 75 53 128t128 53h235q61 0 104.5 -43
t43.5 -104v-62z" />
    <glyph glyph-name="D" unicode="D" 
d="M40 933h383q75 0 128 -53t53 -128v-571q0 -75 -53 -128t-128 -53h-383v933zM100 60h323q50 0 85.5 35.5t35.5 85.5v571q0 51 -35.5 86.5t-85.5 35.5h-323v-814z" />
    <glyph glyph-name="E" unicode="E" horiz-adv-x="614" 
d="M99 437v-377h475v-60h-534v933h534v-59h-475v-378h374v-59h-374z" />
    <glyph glyph-name="F" unicode="F" horiz-adv-x="614" 
d="M99 437v-437h-59v933h534v-59h-475v-378h374v-59h-374z" />
    <glyph glyph-name="G" unicode="G" 
d="M574 933v-59h-353q-50 0 -86 -35.5t-36 -86.5v-571q0 -50 36 -85.5t86 -35.5h323v376h-239v59h299v-495h-383q-75 0 -128 53t-53 128v571q0 75 53 128t128 53h353z" />
    <glyph glyph-name="H" unicode="H" 
d="M99 496h445v437h60v-933h-60v437h-445v-437h-59v933h59v-437z" />
    <glyph glyph-name="I" unicode="I" horiz-adv-x="139" 
d="M40 0v933h60v-933h-60z" />
    <glyph glyph-name="J" unicode="J" 
d="M271 874v59h333v-786q0 -61 -43.5 -104t-104.5 -43h-269q-61 0 -104 43t-43 104v118h59v-118q0 -36 26 -61.5t62 -25.5h269q37 0 62.5 25.5t25.5 61.5v727h-273z" />
    <glyph glyph-name="K" unicode="K" 
d="M99 496h324q50 0 85.5 36t35.5 86v315h60v-315q0 -47 -22 -87t-60 -64q38 -25 60 -65t22 -87v-315h-60v315q0 51 -35.5 86.5t-85.5 35.5h-324v-437h-59v933h59v-437z" />
    <glyph glyph-name="L" unicode="L" horiz-adv-x="613" 
d="M574 60v-60h-534v933h60v-873h474z" />
    <glyph glyph-name="M" unicode="M" horiz-adv-x="811" 
d="M100 842v-842h-60v933h82l8 -17q202 -425 276 -581l284 598h82v-933h-60v842l-279 -590h-54z" />
    <glyph glyph-name="N" unicode="N" 
d="M544 89v844h60v-933h-82l-422 845v-845h-60v933h82z" />
    <glyph glyph-name="O" unicode="O" horiz-adv-x="710" 
d="M221 0q-75 0 -128 53t-53 128v571q0 75 53 128t128 53h269q75 0 128 -53t53 -128v-571q0 -75 -53 -128t-128 -53h-269zM221 60h269q50 0 85.5 35.5t35.5 85.5v571q0 51 -35.5 86.5t-85.5 35.5h-269q-50 0 -85.5 -35.5t-35.5 -86.5v-571q0 -50 35.5 -85.5t85.5 -35.5z" />
    <glyph glyph-name="P" unicode="P" horiz-adv-x="710" 
d="M100 373v-373h-60v933h450q75 0 128 -53t53 -128v-255q0 -75 -53 -128t-128 -53h-279q-57 0 -97 40q-8 8 -14 17zM100 453h33q0 -32 23 -55t55 -23h279q50 0 85.5 36t35.5 86v255q0 51 -35.5 86.5t-85.5 35.5h-390v-421z" />
    <glyph glyph-name="Q" unicode="Q" horiz-adv-x="869" 
d="M614 60h215v-60h-608q-75 0 -128 53t-53 128v571q0 75 53 128t128 53h269q75 0 128 -53t53 -128v-581q0 -34 -15.5 -63t-41.5 -48zM534 60v33q32 0 54.5 23t22.5 55v581q0 51 -35.5 86.5t-85.5 35.5h-269q-50 0 -86 -35.5t-36 -86.5v-571q0 -50 36 -85.5t86 -35.5h313z
" />
    <glyph glyph-name="R" unicode="R" horiz-adv-x="710" 
d="M401 316h-190q-57 0 -97 40q-7 7 -15 17v-373h-59v933h450q75 0 128 -53t53 -128v-255q0 -75 -53 -128t-128 -53h-21l168 -316h-68zM99 453h34q0 -32 23 -55t55 -23h279q50 0 85.5 36t35.5 86v255q0 51 -35.5 86.5t-85.5 35.5h-391v-421z" />
    <glyph glyph-name="S" unicode="S" horiz-adv-x="710" 
d="M578 796q0 32 -23 55t-55 23h-279q-50 0 -86 -35.5t-36 -86.5v-31q0 -32 16.5 -60t43.5 -44q55 -33 211.5 -125t211.5 -124q41 -24 65 -66t24 -90v-31q0 -75 -53 -128t-128 -53h-279q-57 0 -97 40t-40 97h59q0 -32 23 -54.5t55 -22.5h279q50 0 85.5 35.5t35.5 85.5v31
q0 32 -16 60t-44 45l-422 248q-41 25 -65 66.5t-24 89.5v31q0 75 53 128t128 53h279q57 0 97 -40t40 -97h-59z" />
    <glyph glyph-name="T" unicode="T" horiz-adv-x="684" 
d="M313 874h-273v59h605v-59h-273v-874h-59v874z" />
    <glyph glyph-name="U" unicode="U" 
d="M544 933h60v-786q0 -61 -43.5 -104t-104.5 -43h-269q-61 0 -104 43t-43 104v786h59v-786q0 -36 26 -61.5t62 -25.5h269q37 0 62.5 25.5t25.5 61.5v786z" />
    <glyph glyph-name="V" unicode="V" horiz-adv-x="723" 
d="M684 933l-157 -813q-10 -53 -51 -86.5t-94 -33.5h-41q-53 0 -93.5 33.5t-50.5 86.5l-157 813h61l154 -802q6 -31 30.5 -51t55.5 -20h41q32 0 56 20t31 51l154 802h61z" />
    <glyph glyph-name="W" unicode="W" horiz-adv-x="1059" 
d="M1020 933l-160 -831q-9 -44 -44 -73t-80 -29q-49 0 -85.5 33t-41.5 82l-76 759h-7l-75 -759q-5 -49 -41.5 -82t-85.5 -33q-46 0 -80.5 29t-43.5 73l-160 831h61l157 -820q5 -23 23.5 -38t42.5 -15q26 0 45.5 17.5t22.5 43.5l78 786q1 11 9.5 18.5t20.5 7.5h60
q12 0 20.5 -7.5t9.5 -18.5q56 -571 78 -786q3 -26 22.5 -43.5t45.5 -17.5q24 0 42.5 15t22.5 38l158 820h61z" />
    <glyph glyph-name="X" unicode="X" horiz-adv-x="776" 
d="M40 0l312 467l-312 466h72l276 -413l276 413h72l-312 -466l312 -467h-72l-276 413l-276 -413h-72z" />
    <glyph glyph-name="Y" unicode="Y" horiz-adv-x="749" 
d="M345 0v349l-305 584h67l268 -513l268 513h67l-305 -584v-349h-60z" />
    <glyph glyph-name="Z" unicode="Z" horiz-adv-x="710" 
d="M40 874v59h601q18 0 26.5 -15.5t-1.5 -30.5l-541 -827h546v-60h-601q-18 0 -26.5 15.5t1.5 30.5q424 648 541 828h-546z" />
    <glyph glyph-name="bracketleft" unicode="[" horiz-adv-x="237" 
d="M197 33v-60h-157v960h157v-59h-97v-841h97z" />
    <glyph glyph-name="backslash" unicode="\" horiz-adv-x="539" 
d="M435 0l-395 933h65l394 -933h-64z" />
    <glyph glyph-name="bracketright" unicode="]" horiz-adv-x="237" 
d="M40 -27v60h98v841h-98v59h157v-960h-157z" />
    <glyph glyph-name="underscore" unicode="_" horiz-adv-x="382" 
d="M342 817h-302v57h302v-57z" />
    <glyph glyph-name="a" unicode="a" 
d="M544 396v7q0 50 -35.5 85.5t-85.5 35.5h-212q-32 0 -55 -22.5t-23 -54.5h-59q0 56 40 96.5t97 40.5h212q75 0 128 -53t53 -128v-222q0 -75 -53 -128t-128 -53h-236q-61 0 -104 43t-43 104v101q0 61 43 104.5t104 43.5h357zM544 336h-357q-36 0 -61.5 -25.5t-25.5 -62.5
v-101q0 -36 25.5 -61.5t61.5 -25.5h236q50 0 85.5 35.5t35.5 85.5v155z" />
    <glyph glyph-name="b" unicode="b" 
d="M99 527q20 26 49 41.5t63 15.5h212q75 0 128 -53t53 -128v-222q0 -75 -53 -128t-128 -53h-383v870h59v-343zM99 59h324q50 0 85.5 36t35.5 86v222q0 50 -35.5 85.5t-85.5 35.5h-212q-32 0 -55 -22.5t-23 -54.5h-34v-36v-352z" />
    <glyph glyph-name="c" unicode="c" 
d="M544 447q0 32 -22.5 54.5t-55.5 22.5h-245q-50 0 -85.5 -35.5t-35.5 -85.5v-222q0 -50 35.5 -85.5t85.5 -35.5h252q30 0 50.5 20.5t20.5 50.5h60q0 -55 -38.5 -93t-92.5 -38h-252q-75 0 -128 53t-53 128v222q0 75 53 128t128 53h245q57 0 97.5 -40.5t40.5 -96.5h-60z" />
    <glyph glyph-name="d" unicode="d" 
d="M544 527v343h60v-870h-383q-75 0 -128 53t-53 128v222q0 75 53 128t128 53h212q34 0 63 -15.5t48 -41.5zM544 59v352v36h-33q0 32 -23 54.5t-55 22.5h-212q-50 0 -86 -35.5t-36 -85.5v-222q0 -50 36 -86t86 -36h323z" />
    <glyph glyph-name="e" unicode="e" 
d="M100 188v-7q0 -50 35.5 -85.5t85.5 -35.5h212q32 0 55 22.5t23 54.5h59q0 -57 -40 -97t-97 -40h-212q-75 0 -128 53t-53 128v222q0 75 53 128t128 53h235q61 0 104.5 -43t43.5 -105v-100q0 -61 -43.5 -104.5t-104.5 -43.5h-356zM100 248h356q37 0 62.5 25.5t25.5 62.5
v100q0 37 -25.5 62.5t-62.5 25.5h-235q-50 0 -85.5 -35.5t-35.5 -85.5v-155z" />
    <glyph glyph-name="f" unicode="f" horiz-adv-x="580" 
d="M99 495v-495h-59v689q0 75 53 128t128 53h319v-59h-319q-50 0 -86 -36t-36 -86v-135h307v-59h-307z" />
    <glyph glyph-name="g" unicode="g" 
d="M544 57q-19 -26 -48 -41.5t-63 -15.5h-212q-75 0 -128 53t-53 128v222q0 75 53 128t128 53h383v-719q0 -75 -53 -128t-128 -53h-212q-57 0 -97 40t-40 97h59q0 -32 23 -55q23 -22 55 -22h212q50 0 85.5 35.5t35.5 85.5v192zM544 524h-323q-50 0 -86 -35.5t-36 -85.5v-222
q0 -50 36 -86t86 -36h212q32 0 55 23t23 55h33v16v371z" />
    <glyph glyph-name="h" unicode="h" 
d="M99 870v-343q7 9 15 17q40 40 97 40h211q76 0 129 -53t53 -128v-403h-60v403q0 50 -35.5 85.5t-86.5 35.5h-211q-33 0 -55 -22q-23 -23 -23 -55h-34v-447h-59v870h59z" />
    <glyph glyph-name="i" unicode="i" horiz-adv-x="139" 
d="M40 736h59v-68h-59v68zM40 584h59v-584h-59v584z" />
    <glyph glyph-name="j" unicode="j" horiz-adv-x="253" 
d="M154 747h59v-67h-59v67zM154 595h59v-722q0 -61 -43 -104.5t-104 -43.5h-26v60h26q36 0 62 25.5t26 62.5v722z" />
    <glyph glyph-name="k" unicode="k" 
d="M99 322h324q50 0 85.5 35.5t35.5 85.5v141h60v-141q0 -75 -53 -128q-14 -13 -29 -23q15 -10 29 -23q53 -53 53 -128v-141h-60v141q0 50 -35.5 85.5t-85.5 35.5h-324v-262h-59v870h59v-548z" />
    <glyph glyph-name="l" unicode="l" horiz-adv-x="139" 
d="M40 0v870h60v-870h-60z" />
    <glyph glyph-name="m" unicode="m" horiz-adv-x="1147" 
d="M99 527q19 26 48.5 41.5t63.5 15.5h212q75 0 128 -53q20 -20 32 -45q13 43 49.5 70.5t82.5 27.5h212q75 0 128 -53t53 -128v-403h-60v403q0 50 -35.5 85.5t-85.5 35.5h-212q-32 0 -55 -22.5t-23 -54.5h-39q6 -21 6 -44v-403h-60v403q0 50 -35.5 85.5t-85.5 35.5h-212
q-32 0 -55 -22.5t-23 -54.5h-34v-447h-59v584h59v-57z" />
    <glyph glyph-name="n" unicode="n" 
d="M544 0v403q0 50 -35.5 85.5t-86.5 35.5h-211q-33 0 -55 -22q-23 -23 -23 -55h-34v-447h-59v584h59v-57q7 9 15 17q40 40 97 40h211q76 0 129 -53t53 -128v-403h-60z" />
    <glyph glyph-name="o" unicode="o" 
d="M604 403v-222q0 -75 -53 -128t-128 -53h-202q-75 0 -128 53t-53 128v222q0 75 53 128t128 53h202q75 0 128 -53t53 -128zM544 403q0 50 -35.5 85.5t-85.5 35.5h-202q-50 0 -85.5 -35.5t-35.5 -85.5v-222q0 -50 35.5 -85.5t85.5 -35.5h202q50 0 85.5 35.5t35.5 85.5v222z
" />
    <glyph glyph-name="p" unicode="p" 
d="M100 57v-343h-60v870h383q75 0 128 -53t53 -128v-222q0 -75 -53 -128t-128 -53h-212q-57 0 -97 40q-8 8 -14 17zM100 137h33q0 -32 23 -54.5t55 -22.5h212q50 0 85.5 35.5t35.5 85.5v222q0 50 -35.5 85.5t-85.5 35.5h-323v-387z" />
    <glyph glyph-name="q" unicode="q" 
d="M544 57q-6 -9 -14 -17q-40 -40 -97 -40h-212q-75 0 -128 53t-53 128v222q0 75 53 128t128 53h383v-870h-60v343zM544 137v387h-323q-50 0 -85.5 -35.5t-35.5 -85.5v-222q0 -50 35.5 -85.5t85.5 -35.5h212q32 0 55 22.5t23 54.5h33z" />
    <glyph glyph-name="r" unicode="r" horiz-adv-x="542" 
d="M443 447q0 32 -22.5 54.5t-54.5 22.5h-179q-36 0 -61.5 -25.5t-25.5 -62.5v-436h-60v436q0 62 43 105t104 43h179q56 0 96.5 -40.5t40.5 -96.5h-60z" />
    <glyph glyph-name="s" unicode="s" 
d="M511 447q0 32 -23 54.5t-55 22.5h-246q-36 0 -62 -25.5t-26 -62.5v-1q0 -33 22 -57.5t55 -29.5l300 -40q55 -7 91.5 -49t36.5 -97v-15q0 -61 -43.5 -104t-104.5 -43h-245q-57 0 -97 40t-40 97h59q0 -32 23 -54.5t55 -22.5h245q37 0 62.5 25.5t25.5 61.5v15q0 33 -21.5 58
t-54.5 29q-46 6 -152.5 20.5t-147.5 19.5q-55 7 -91.5 49t-36.5 97v1q0 61 43 104.5t104 43.5h246q57 0 97 -40.5t40 -96.5h-59z" />
    <glyph glyph-name="t" unicode="t" horiz-adv-x="441" 
d="M99 584h240v-60h-240v-377q0 -36 26 -62t63 -26h77q32 0 54.5 23t22.5 55h60q0 -57 -40 -97t-97 -40h-77q-62 0 -105 43t-43 104v555h59v-118z" />
    <glyph glyph-name="u" unicode="u" 
d="M544 137v447h60v-584h-60v57q-7 -10 -14 -17q-40 -40 -97 -40h-212q-75 0 -128 53t-53 128v403h59v-403q0 -50 36 -85.5t86 -35.5h212q32 0 55 22q23 23 23 55h33z" />
    <glyph glyph-name="v" unicode="v" horiz-adv-x="665" 
d="M626 584l-155 -483q-14 -45 -52.5 -73t-85.5 -28t-85.5 28t-52.5 73l-155 483h63l148 -465q9 -27 31.5 -43t50.5 -16t50.5 16t30.5 43l149 465h63z" />
    <glyph glyph-name="w" unicode="w" horiz-adv-x="963" 
d="M924 584l-128 -499q-10 -37 -40.5 -61t-69.5 -24q-41 0 -73 26t-40 66l-91 430l-91 -430q-9 -40 -40.5 -66t-72.5 -26q-39 0 -69.5 24t-40.5 61l-128 499h62l124 -484q4 -18 19 -29t33 -11q20 0 35 12t20 32l96 456q2 11 10.5 17.5t18.5 6.5h48q10 0 18 -6.5t10 -17.5
q67 -315 97 -456q4 -20 19.5 -32t35.5 -12q18 0 33 11t19 29l124 484h62z" />
    <glyph glyph-name="x" unicode="x" horiz-adv-x="723" 
d="M40 0l281 292l-281 292h83l239 -249l239 249h83l-281 -292l281 -292h-83l-239 249l-239 -249h-83z" />
    <glyph glyph-name="y" unicode="y" 
d="M544 57q-19 -26 -48 -41.5t-63 -15.5h-212q-75 0 -128 53t-53 128v403h59v-403q0 -50 36 -86t86 -36h212q32 0 55 23t23 55h33v447h60v-719q0 -75 -53 -128t-128 -53h-212q-57 0 -97 40t-40 97h59q0 -32 23 -54.5t55 -22.5h212q50 0 85.5 35.5t35.5 85.5v192z" />
    <glyph glyph-name="z" unicode="z" 
d="M74 447q0 56 40 96.5t97 40.5h363q20 0 27.5 -18t-6.5 -33l-455 -473h293q32 0 55 22.5t23 54.5h59q0 -57 -40 -97t-97 -40h-363q-20 0 -27.5 18t5.5 32l456 474h-293q-32 0 -55 -22.5t-23 -54.5h-59z" />
    <glyph glyph-name="braceleft" unicode="{" horiz-adv-x="293" 
d="M107 452q49 -44 49 -109v-222q0 -37 25.5 -62.5t61.5 -25.5h11v-60h-11q-61 0 -104 43t-43 105v222q0 42 -33 69l-23 18l2 48q7 5 17 12q37 26 37 72v224q0 61 43 104t104 43h11v-59h-11q-36 0 -61.5 -26t-25.5 -62v-224q0 -66 -49 -110z" />
    <glyph glyph-name="braceright" unicode="}" horiz-adv-x="293" 
d="M186 452q-48 44 -48 110v224q0 36 -26 62t-62 26h-10v59h10q61 0 104 -43t43 -104v-224q0 -46 38 -72l17 -12l2 -48l-24 -18q-33 -27 -33 -69v-222q0 -62 -43 -105t-104 -43h-10v60h10q36 0 62 25.5t26 62.5v222q0 65 48 109z" />
    <glyph glyph-name="uni00AD" unicode="&#xad;" horiz-adv-x="281" 
d="M242 825h-202v49h202v-49z" />
    <glyph glyph-name="macron" unicode="&#xaf;" horiz-adv-x="483" 
d="M443 808h-403v66h403v-66z" />
    <glyph glyph-name="OE" unicode="&#x152;" horiz-adv-x="1118" 
d="M544 29q-39 -29 -88 -29h-268q-61 0 -104.5 43t-43.5 104v639q0 61 43.5 104t104.5 43h268q49 0 88 -29v29h534v-59h-474v-88v-290h373v-59h-373v-290v-87h474v-60h-534v29zM188 60h268q37 0 62.5 25.5t25.5 61.5v639q0 36 -25.5 62t-62.5 26h-268q-37 0 -62.5 -26
t-25.5 -62v-639q0 -36 25.5 -61.5t62.5 -25.5z" />
    <glyph glyph-name="oe" unicode="&#x153;" horiz-adv-x="1147" 
d="M574 82q-11 -16 -23 -29q-53 -53 -129 -53h-201q-75 0 -128 53t-53 128v222q0 75 53 128t128 53h201q76 0 129 -53q12 -13 23 -29q10 16 23 29q53 53 128 53h235q61 0 104.5 -43.5t43.5 -104.5v-100q0 -61 -43.5 -104.5t-104.5 -43.5h-356v-7q0 -50 35 -86q35 -35 86 -35
h212q32 0 55 22.5t23 54.5h59q0 -57 -40 -97t-97 -40h-212q-75 0 -128 53q-13 13 -23 29zM544 403q0 50 -35.5 85.5t-86.5 35.5h-201q-51 0 -86 -35q-36 -36 -36 -86v-222q0 -50 36 -86q35 -35 86 -35h201q51 0 86.5 35.5t35.5 85.5v222zM604 248h356q37 0 62.5 25.5
t25.5 62.5v100q0 37 -25.5 62.5t-62.5 25.5h-235q-51 0 -86 -35q-35 -36 -35 -86v-155z" />
    <glyph glyph-name="Scaron" unicode="&#x160;" horiz-adv-x="710" 
d="M578 796q0 32 -23 55t-55 23h-279q-51 0 -86 -36q-36 -35 -36 -86v-31q0 -32 16.5 -60t43.5 -44q60 -36 218 -129t204 -120q42 -24 66 -66t24 -90v-31q0 -75 -53 -128t-128 -53h-279q-57 0 -97 40q-40 41 -40 97h59q0 -32 23 -55q23 -22 55 -22h279q50 0 85.5 35.5
t35.5 85.5v31q0 32 -16 60t-44 45l-422 248q-41 25 -65 66.5t-24 89.5v31q0 76 53 128q53 53 128 53h279q56 0 96.5 -40t40.5 -97h-59zM508 1142l-125 -154h-55l-125 154h76l76 -94l77 94h76z" />
    <glyph glyph-name="scaron" unicode="&#x161;" 
d="M511 447q0 32 -23 54.5t-55 22.5h-246q-36 0 -62 -25.5t-26 -62.5v-1q0 -33 22 -57.5t55 -29.5q43 -6 300 -40q55 -7 91.5 -49t36.5 -97v-15q0 -61 -44 -104q-43 -43 -104 -43h-245q-57 0 -97 40t-40 97h59q0 -32 23 -54.5t55 -22.5h245q37 0 62.5 25.5t25.5 61.5v15
q0 33 -21.5 58t-54.5 29q-44 6 -150.5 20t-149.5 20q-55 7 -91.5 49t-36.5 97v1q0 62 43 105t104 43h246q57 0 97 -40.5t40 -96.5h-59zM476 792l-125 -154h-55l-126 154h77l76 -93l76 93h77z" />
    <glyph glyph-name="zcaron" unicode="&#x17e;" 
d="M74 446q0 57 40 97t97 40h363q20 0 27.5 -18t-6.5 -32l-455 -474h293q32 0 55 23t23 55h59q0 -57 -40 -97.5t-97 -40.5h-363q-20 0 -27.5 18.5t5.5 32.5l456 474h-293q-32 0 -55 -23t-23 -55h-59zM476 792l-125 -154h-55l-126 154h77l76 -94l76 94h77z" />
    </font>
</defs>
</svg>
