<?xml version="1.0" standalone="no"?>
<!DOCTYPE svg PUBLIC "-//W3C//DTD SVG 1.1//EN" "http://www.w3.org/Graphics/SVG/1.1/DTD/svg11.dtd" >
<svg xmlns="http://www.w3.org/2000/svg" xmlns:xlink="http://www.w3.org/1999/xlink" version="1.1">
<metadata>
Created by FontForge 20201107 at Thu Oct 24 04:59:54 2019
 By Jimmy Wärting
Copyright Darrell Flood 2019
</metadata>
<defs>
<font id="HyperheliX-Italic" horiz-adv-x="704" >
  <font-face 
    font-family="Hyper heliX"
    font-weight="400"
    font-style="italic"
    font-stretch="normal"
    units-per-em="1024"
    panose-1="2 0 0 0 0 0 0 9 0 0"
    ascent="896"
    descent="-128"
    x-height="640"
    cap-height="640"
    bbox="-2 -128 1099 896"
    underline-thickness="51"
    underline-position="77"
    slope="-15"
    unicode-range="U+001D-20AC"
  />
<missing-glyph horiz-adv-x="320" 
 />
    <glyph glyph-name=".notdef" horiz-adv-x="320" 
 />
    <glyph glyph-name=".notdef" horiz-adv-x="320" 
 />
    <glyph glyph-name="_1" horiz-adv-x="320" 
 />
    <glyph glyph-name="nonmarkingreturn" horiz-adv-x="64" 
 />
    <glyph glyph-name="space" unicode=" " horiz-adv-x="512" 
 />
    <glyph glyph-name="exclam" unicode="!" horiz-adv-x="192" 
d="M331 640l-102 -384h-128l102 384h128zM194 128l-34 -128h-128l34 128h128z" />
    <glyph glyph-name="quotedbl" unicode="&#x22;" horiz-adv-x="448" 
d="M135 384l68 256h128l-68 -256h-128zM391 384l68 256h128l-68 -256h-128z" />
    <glyph glyph-name="numbersign" unicode="#" 
d="M229 256l34 128h-128l34 128h128l34 128h128l-34 -128h128l34 128h128l-34 -128h128l-34 -128h-128l-34 -128h128l-35 -128h-128l-34 -128h-128l34 128h-128l-34 -128h-128l34 128h-128l35 128h128zM391 384l-34 -128h128l34 128h-128z" />
    <glyph glyph-name="dollar" unicode="$" 
d="M459 640l35 128h128l-35 -128h256l-162 -128h-256q-128 0 -145 -64t111 -64h128q256 0 204 -192q-51 -192 -307 -192l-34 -128h-128l34 128h-256l162 128h256q128 0 145 64q18 64 -110 64h-128q-256 0 -205 192t307 192z" />
    <glyph glyph-name="percent" unicode="%" horiz-adv-x="734" 
d="M32 0l687 640h154l-683 -640h-158zM199 512l34 128h128l-34 -128h-128zM574 0l34 128h128l-34 -128h-128z" />
    <glyph glyph-name="ampersand" unicode="&#x26;" horiz-adv-x="768" 
d="M519 384q128 0 145 64t-111 64h-128q-128 0 -145 -64t111 -64h128zM450 128q128 0 145 64q18 64 -110 64h-128q-128 0 -146 -64q-17 -64 111 -64h128zM288 0q-256 0 -205 192q21 77 84 123q-38 47 -15 133q51 192 307 192h128q256 0 205 -192q-23 -86 -87 -133
q39 -46 18 -123q-9 -35 -25 -64h136l-162 -128h-384z" />
    <glyph glyph-name="quotesingle" unicode="'" horiz-adv-x="192" 
d="M135 384l68 256h128l-68 -256h-128z" />
    <glyph glyph-name="parenleft" unicode="(" horiz-adv-x="448" 
d="M587 640h-128q-128 0 -162 -128l-103 -384q-34 -128 94 -128h128l-34 -128h-128q-256 0 -188 256l103 384q69 256 325 256h128z" />
    <glyph glyph-name="parenright" unicode=")" horiz-adv-x="448" 
d="M203 640l35 128h128q256 0 187 -256l-103 -384q-68 -256 -324 -256h-128l34 128h128q128 0 162 128l103 384q34 128 -94 128h-128z" />
    <glyph glyph-name="asterisk" unicode="*" horiz-adv-x="422" 
d="M347 390l-35 -134h-64l35 134l-132 -72l-19 54l140 76l-100 76l49 54l94 -72l35 134h64l-35 -134l132 72l19 -54l-139 -76l99 -76l-49 -54z" />
    <glyph glyph-name="plus" unicode="+" 
d="M391 384l68 256h128l-68 -256h256l-34 -128h-256l-69 -256h-128l69 256h-256l34 128h256z" />
    <glyph glyph-name="comma" unicode="," horiz-adv-x="192" 
d="M229 256l-69 -256h-128l69 256h128z" />
    <glyph glyph-name="hyphen" unicode="-" 
d="M101 256l34 128h640l-34 -128h-640z" />
    <glyph glyph-name="period" unicode="." horiz-adv-x="192" 
d="M32 0l34 128h128l-34 -128h-128z" />
    <glyph glyph-name="slash" unicode="/" horiz-adv-x="734" 
d="M23 -32l688 640h154l-684 -640h-158z" />
    <glyph glyph-name="zero" unicode="0" 
d="M263 384l-34 -128q-35 -128 93 -128h128q128 0 163 128l34 128q34 128 -94 128h-128q-128 0 -162 -128zM775 384l-34 -128q-69 -256 -325 -256h-128q-256 0 -187 256l34 128q68 256 324 256h128q256 0 188 -256z" />
    <glyph glyph-name="one" unicode="1" horiz-adv-x="192" 
d="M331 640l-171 -640h-128l171 640h128z" />
    <glyph glyph-name="two" unicode="2" 
d="M672 0h-640l34 128q69 256 325 256h128q128 0 145 64t-111 64h-384l162 128h256q256 0 205 -192t-307 -192h-128q-128 0 -163 -128h512z" />
    <glyph glyph-name="three" unicode="3" 
d="M169 512l34 128h384q256 0 188 -256l-34 -128q-69 -256 -325 -256h-384l34 128h384q128 0 163 128l34 128q34 128 -94 128h-384zM101 256l34 128h384l-162 -128h-256z" />
    <glyph glyph-name="four" unicode="4" 
d="M331 640l-34 -128q-34 -128 94 -128h256l68 256h128l-171 -640h-128l69 256h-256q-256 0 -188 256l34 128h128z" />
    <glyph glyph-name="five" unicode="5" 
d="M843 640l-34 -128h-512q-34 -128 94 -128h128q256 0 204 -192q-51 -192 -307 -192h-384l162 128h256q128 0 145 64q18 64 -110 64h-128q-256 0 -188 256l34 128h640z" />
    <glyph glyph-name="six" unicode="6" 
d="M135 384q68 256 324 256h384l-162 -128h-256q-128 0 -162 -128h256q256 0 204 -192q-51 -192 -307 -192h-128q-256 0 -187 256zM322 128h128q128 0 145 64q18 64 -110 64h-256q-35 -128 93 -128z" />
    <glyph glyph-name="seven" unicode="7" 
d="M331 640h256q256 0 188 -256l-103 -384h-128l103 384q34 128 -94 128h-384z" />
    <glyph glyph-name="eight" unicode="8" 
d="M288 0q-256 0 -205 192q21 77 84 123q-38 47 -15 133q51 192 307 192h128q256 0 205 -192q-23 -86 -87 -133q39 -46 18 -123q-51 -192 -307 -192h-128zM519 384q128 0 145 64t-111 64h-128q-128 0 -145 -64t111 -64h128zM450 128q128 0 145 64q18 64 -110 64h-128
q-128 0 -146 -64q-17 -64 111 -64h128z" />
    <glyph glyph-name="nine" unicode="9" 
d="M741 256q-69 -256 -325 -256h-384l162 128h256q128 0 163 128h-256q-256 0 -205 192t307 192h128q256 0 188 -256zM553 512h-128q-128 0 -145 -64t111 -64h256q34 128 -94 128z" />
    <glyph glyph-name="colon" unicode=":" horiz-adv-x="192" 
d="M297 512l-34 -128h-128l34 128h128zM229 256l-35 -128h-128l35 128h128z" />
    <glyph glyph-name="semicolon" unicode=";" horiz-adv-x="192" 
d="M297 512l-34 -128h-128l34 128h128zM229 256l-69 -256h-128l69 256h128z" />
    <glyph glyph-name="less" unicode="&#x3c;" 
d="M843 640l-34 -128l-563 -190l460 -194l-34 -128l-571 256l34 128z" />
    <glyph glyph-name="equal" unicode="=" 
d="M135 384l34 128h640l-34 -128h-640zM66 128l35 128h640l-35 -128h-640z" />
    <glyph glyph-name="greater" unicode="&#x3e;" 
d="M775 384l-34 -128l-709 -256l34 128l564 194l-461 190l34 128z" />
    <glyph glyph-name="question" unicode="?" 
d="M450 128l-34 -128h-128l34 128h128zM331 640h256q256 0 205 -192t-307 -192h-128l34 128h128q128 0 145 64t-111 64h-384z" />
    <glyph glyph-name="at" unicode="@" 
d="M519 384q128 0 145 64t-111 64h-128q-128 0 -162 -128l-34 -128q-35 -128 93 -128h384l-34 -128h-384q-256 0 -187 256l34 128q68 256 324 256h128q256 0 205 -192t-307 -192h-128z" />
    <glyph glyph-name="A" unicode="A" 
d="M647 384q34 128 -94 128h-128q-128 0 -162 -128l-103 -384l-162 -128l137 512q68 256 324 256h128q256 0 188 -256l-103 -384h-128l69 256h-256l162 128h128z" />
    <glyph glyph-name="B" unicode="B" 
d="M194 128h256q128 0 145 64q18 64 -110 64h-128l162 128q128 0 145 64t-111 64h-256zM32 0l171 640h384q256 0 205 -192q-23 -86 -87 -133q39 -46 18 -123q-51 -192 -307 -192h-384z" />
    <glyph glyph-name="C" unicode="C" 
d="M425 512q-128 0 -162 -128l-34 -128q-35 -128 93 -128h384l-34 -128h-384q-256 0 -187 256l34 128q68 256 324 256h384l-162 -128h-256z" />
    <glyph glyph-name="D" unicode="D" 
d="M32 0l103 384h128l-69 -256h256q128 0 163 128l34 128q34 128 -94 128h-384l162 128h256q256 0 188 -256l-34 -128q-69 -256 -325 -256h-384z" />
    <glyph glyph-name="E" unicode="E" 
d="M425 512q-128 0 -162 -128l-34 -128q-35 -128 93 -128h384l-34 -128h-384q-256 0 -187 256l34 128q68 256 324 256h384l-34 -128h-384zM741 256h-384l162 128h256z" />
    <glyph glyph-name="F" unicode="F" 
d="M425 512q-128 0 -162 -128l-103 -384l-162 -128l137 512q68 256 324 256h384l-34 -128h-384zM741 256h-384l162 128h256z" />
    <glyph glyph-name="G" unicode="G" 
d="M672 0h-384q-256 0 -187 256l34 128q68 256 324 256h384l-162 -128h-256q-128 0 -162 -128l-34 -128q-35 -128 93 -128h256l69 256h128z" />
    <glyph glyph-name="H" unicode="H" 
d="M160 0l-162 -128l205 768h128zM519 384h128l68 256h128l-171 -640h-128l69 256h-256z" />
    <glyph glyph-name="I" unicode="I" horiz-adv-x="192" 
d="M331 640l-171 -640h-128l171 640h128z" />
    <glyph glyph-name="J" unicode="J" 
d="M843 640l-102 -384q-69 -256 -325 -256h-128q-256 0 -187 256h128q-35 -128 93 -128h128q128 0 163 128l68 256h-256l162 128h256z" />
    <glyph glyph-name="K" unicode="K" 
d="M160 0h-128l171 640h128zM544 0q34 128 -54 192t-132 64l34 128q47 0 168 64t155 192h128q-51 -192 -290 -320q170 -128 119 -320l-162 -128z" />
    <glyph glyph-name="L" unicode="L" 
d="M544 0h-256q-256 0 -187 256l102 384h128l-102 -384q-35 -128 93 -128h384z" />
    <glyph glyph-name="M" unicode="M" horiz-adv-x="960" 
d="M519 384q34 128 -94 128t-162 -128l-103 -384h-128l103 384q68 256 324 256q128 0 175 -64q81 64 209 64q256 0 188 -256l-103 -384h-128l103 384q34 128 -94 128t-162 -128l-103 -384h-128z" />
    <glyph glyph-name="N" unicode="N" 
d="M647 384q34 128 -94 128h-128q-128 0 -162 -128l-103 -384h-128l103 384q68 256 324 256h128q256 0 188 -256l-103 -384h-128z" />
    <glyph glyph-name="O" unicode="O" 
d="M263 384l-34 -128q-35 -128 93 -128h128q128 0 163 128l34 128q34 128 -94 128h-128q-128 0 -162 -128zM775 384l-34 -128q-69 -256 -325 -256h-128q-256 0 -187 256l34 128q68 256 324 256h128q256 0 188 -256z" />
    <glyph glyph-name="P" unicode="P" 
d="M587 640q256 0 205 -192t-307 -192h-128l162 128q128 0 145 64t-111 64h-256l-137 -512l-162 -128l205 768h384z" />
    <glyph glyph-name="Q" unicode="Q" 
d="M263 384l-34 -128q-35 -128 93 -128h128q128 0 163 128l34 128q34 128 -94 128h-128q-128 0 -162 -128zM550 22q-59 -22 -134 -22h-128q-256 0 -187 256l34 128q68 256 324 256h128q256 0 188 -256l-103 -384l-162 -128z" />
    <glyph glyph-name="R" unicode="R" 
d="M544 0q34 126 -42 191t-145 65l162 128q128 0 145 64t-111 64h-256l-137 -512h-128l171 640h384q256 0 205 -192q-37 -140 -184 -178q106 -114 64 -270l-162 -128z" />
    <glyph glyph-name="S" unicode="S" 
d="M32 0l162 128h256q128 0 145 64q18 64 -110 64h-128q-256 0 -205 192t307 192h384l-162 -128h-256q-128 0 -145 -64t111 -64h128q256 0 204 -192q-51 -192 -307 -192h-384z" />
    <glyph glyph-name="T" unicode="T" 
d="M331 640h512l-34 -128h-256l-137 -512l-162 -128l171 640h-256z" />
    <glyph glyph-name="U" unicode="U" 
d="M715 640h128l-102 -384q-69 -256 -325 -256h-128q-256 0 -187 256l102 384h128l-102 -384q-35 -128 93 -128h128q128 0 163 128z" />
    <glyph glyph-name="V" unicode="V" 
d="M843 640l-427 -640h-128l-85 640h144l56 -448l296 448h144z" />
    <glyph glyph-name="W" unicode="W" horiz-adv-x="960" 
d="M485 256l102 384h128l-102 -384q-35 -128 93 -128t163 128l102 384h128l-102 -384q-69 -256 -325 -256q-128 0 -175 64q-81 -64 -209 -64q-256 0 -187 256l102 384h128l-102 -384q-35 -128 93 -128t163 128z" />
    <glyph glyph-name="X" unicode="X" 
d="M544 0q34 126 -120 244l-6 4q-224 -120 -258 -248h-128q51 192 291 320q-171 128 -120 320h128q-34 -128 126 -248q224 120 258 248h128q-51 -192 -290 -320l5 -4q165 -127 114 -316l-162 -128z" />
    <glyph glyph-name="Y" unicode="Y" 
d="M418 248q-224 -120 -258 -248h-128q51 192 291 320q-171 128 -120 320h128q-34 -128 126 -248q224 120 258 248h128q-51 -192 -290 -320z" />
    <glyph glyph-name="Z" unicode="Z" 
d="M544 0h-512l34 128q69 256 325 256h128q128 0 162 128h-512l162 128h512l-34 -128q-68 -256 -324 -256h-128q-128 0 -163 -128h512z" />
    <glyph glyph-name="bracketleft" unicode="[" horiz-adv-x="448" 
d="M587 640h-256l-171 -640h256l-34 -128h-384l240 896h384z" />
    <glyph glyph-name="backslash" unicode="\" horiz-adv-x="734" 
d="M544 0l-341 640h154l345 -640h-158z" />
    <glyph glyph-name="bracketright" unicode="]" horiz-adv-x="448" 
d="M238 768h384l-240 -896h-384l34 128h256l171 640h-256z" />
    <glyph glyph-name="asciicircum" unicode="^" horiz-adv-x="448" 
d="M203 640l263 256l121 -256h-128l-38 80l-90 -80h-128z" />
    <glyph glyph-name="underscore" unicode="_" 
d="M-2 -128l34 128h640l-34 -128h-640z" />
    <glyph glyph-name="grave" unicode="`" horiz-adv-x="320" 
d="M272 896h128l59 -256h-128z" />
    <glyph glyph-name="a" unicode="a" 
d="M647 384q34 128 -94 128h-128q-128 0 -162 -128l-103 -384h-128l103 384q68 256 324 256h128q256 0 188 -256l-103 -384h-128l69 256h-256l162 128h128z" />
    <glyph glyph-name="b" unicode="b" 
d="M194 128h256q128 0 145 64q18 64 -110 64h-128l162 128q128 0 145 64t-111 64h-256zM32 0l171 640h384q256 0 205 -192q-23 -86 -87 -133q39 -46 18 -123q-51 -192 -307 -192h-384z" />
    <glyph glyph-name="c" unicode="c" 
d="M425 512q-128 0 -162 -128l-34 -128q-35 -128 93 -128h384l-34 -128h-384q-256 0 -187 256l34 128q68 256 324 256h384l-162 -128h-256z" />
    <glyph glyph-name="d" unicode="d" 
d="M32 0l103 384h128l-69 -256h256q128 0 163 128l34 128q34 128 -94 128h-384l162 128h256q256 0 188 -256l-34 -128q-69 -256 -325 -256h-384z" />
    <glyph glyph-name="e" unicode="e" 
d="M425 512q-128 0 -162 -128l-34 -128q-35 -128 93 -128h384l-34 -128h-384q-256 0 -187 256l34 128q68 256 324 256h384l-34 -128h-384zM741 256h-384l162 128h256z" />
    <glyph glyph-name="f" unicode="f" 
d="M425 512q-128 0 -162 -128l-103 -384h-128l103 384q68 256 324 256h384l-34 -128h-384zM741 256h-384l162 128h256z" />
    <glyph glyph-name="g" unicode="g" 
d="M672 0h-384q-256 0 -187 256l34 128q68 256 324 256h384l-162 -128h-256q-128 0 -162 -128l-34 -128q-35 -128 93 -128h256l69 256h128z" />
    <glyph glyph-name="h" unicode="h" 
d="M160 0h-128l171 640h128zM519 384h128l68 256h128l-171 -640h-128l69 256h-256z" />
    <glyph glyph-name="i" unicode="i" horiz-adv-x="192" 
d="M331 640l-171 -640h-128l171 640h128z" />
    <glyph glyph-name="j" unicode="j" 
d="M843 640l-102 -384q-69 -256 -325 -256h-128q-256 0 -187 256h128q-35 -128 93 -128h128q128 0 163 128l68 256h-256l162 128h256z" />
    <glyph glyph-name="k" unicode="k" 
d="M391 384q48 0 169 64t155 192h128q-51 -192 -290 -320q170 -128 119 -320h-128q34 128 -54 192t-133 64zM160 0h-128l171 640h128z" />
    <glyph glyph-name="l" unicode="l" 
d="M544 0h-256q-256 0 -187 256l102 384h128l-102 -384q-35 -128 93 -128h384z" />
    <glyph glyph-name="m" unicode="m" horiz-adv-x="960" 
d="M519 384q34 128 -94 128t-162 -128l-103 -384h-128l103 384q68 256 324 256q128 0 175 -64q81 64 209 64q256 0 188 -256l-103 -384h-128l103 384q34 128 -94 128t-162 -128l-103 -384h-128z" />
    <glyph glyph-name="n" unicode="n" 
d="M647 384q34 128 -94 128h-128q-128 0 -162 -128l-103 -384h-128l103 384q68 256 324 256h128q256 0 188 -256l-103 -384h-128z" />
    <glyph glyph-name="o" unicode="o" 
d="M263 384l-34 -128q-35 -128 93 -128h128q128 0 163 128l34 128q34 128 -94 128h-128q-128 0 -162 -128zM775 384l-34 -128q-69 -256 -325 -256h-128q-256 0 -187 256l34 128q68 256 324 256h128q256 0 188 -256z" />
    <glyph glyph-name="p" unicode="p" 
d="M587 640q256 0 205 -192t-307 -192h-128l162 128q128 0 145 64t-111 64h-256l-137 -512h-128l171 640h384z" />
    <glyph glyph-name="q" unicode="q" horiz-adv-x="768" 
d="M263 384l-34 -128q-35 -128 93 -128h128q128 0 163 128l34 128q34 128 -94 128h-128q-128 0 -162 -128zM288 0q-256 0 -187 256l34 128q68 256 324 256h128q256 0 188 -256l-34 -128q-20 -75 -57 -128h150l-162 -128h-384z" />
    <glyph glyph-name="r" unicode="r" 
d="M357 256l162 128q128 0 145 64t-111 64h-256l-137 -512h-128l171 640h384q256 0 205 -192q-37 -140 -184 -178q106 -114 64 -270h-128q34 126 -42 191t-145 65z" />
    <glyph glyph-name="s" unicode="s" 
d="M32 0l162 128h256q128 0 145 64q18 64 -110 64h-128q-256 0 -205 192t307 192h384l-162 -128h-256q-128 0 -145 -64t111 -64h128q256 0 204 -192q-51 -192 -307 -192h-384z" />
    <glyph glyph-name="t" unicode="t" 
d="M331 640h512l-34 -128h-256l-137 -512h-128l137 512h-256z" />
    <glyph glyph-name="u" unicode="u" 
d="M715 640h128l-102 -384q-69 -256 -325 -256h-128q-256 0 -187 256l102 384h128l-102 -384q-35 -128 93 -128h128q128 0 163 128z" />
    <glyph glyph-name="v" unicode="v" 
d="M843 640l-427 -640h-128l-85 640h144l56 -448l296 448h144z" />
    <glyph glyph-name="w" unicode="w" horiz-adv-x="960" 
d="M485 256l102 384h128l-102 -384q-35 -128 93 -128t163 128l102 384h128l-102 -384q-69 -256 -325 -256q-128 0 -175 64q-81 -64 -209 -64q-256 0 -187 256l102 384h128l-102 -384q-35 -128 93 -128t163 128z" />
    <glyph glyph-name="x" unicode="x" 
d="M558 316q165 -127 114 -316h-128q34 126 -120 244l-6 4q-224 -120 -258 -248h-128q51 192 291 320q-171 128 -120 320h128q-34 -128 126 -248q224 120 258 248h128q-51 -192 -290 -320z" />
    <glyph glyph-name="y" unicode="y" 
d="M418 248q-224 -120 -258 -248h-128q51 192 291 320q-171 128 -120 320h128q-34 -128 126 -248q224 120 258 248h128q-51 -192 -290 -320z" />
    <glyph glyph-name="z" unicode="z" 
d="M544 0h-512l34 128q69 256 325 256h128q128 0 162 128h-512l162 128h512l-34 -128q-68 -256 -324 -256h-128q-128 0 -163 -128h512z" />
    <glyph glyph-name="braceleft" unicode="{" 
d="M263 384l-34 -128q-35 -128 93 -128h128q128 0 163 128l34 128q34 128 -94 128h-128q-128 0 -162 -128zM775 384l-34 -128q-69 -256 -325 -256h-128q-256 0 -187 256l34 128q68 256 324 256h128q256 0 188 -256zM485 256h-128l34 128h128z" />
    <glyph glyph-name="bar" unicode="|" horiz-adv-x="192" 
d="M-2 -128l240 896h128l-240 -896h-128z" />
    <glyph glyph-name="braceright" unicode="}" horiz-adv-x="640" 
d="M369 199q-180 -199 -369 -199l34 128q126 0 294 185q3 4 6 7q-69 192 -197 192l34 128q192 0 266 -205q182 205 374 205l-34 -128q-128 0 -299 -192q68 -192 196 -192l-34 -128q-192 0 -265 205z" />
    <glyph glyph-name="asciitilde" unicode="~" horiz-adv-x="448" 
d="M124 344q106 69 163 69q27 0 44 -15q16 -16 44 -16q57 0 161 66l-41 -154q-106 -69 -163 -69q-27 0 -44 15q-17 16 -45 16q-57 0 -160 -64z" />
    <glyph glyph-name="quoteleft" unicode="&#x2018;" horiz-adv-x="192" 
d="M135 384l68 256h128l-68 -256h-128z" />
    <glyph glyph-name="quoteright" unicode="&#x2019;" horiz-adv-x="192" 
d="M135 384l68 256h128l-68 -256h-128z" />
    <glyph glyph-name="quotedblleft" unicode="&#x201c;" horiz-adv-x="448" 
d="M135 384l68 256h128l-68 -256h-128zM391 384l68 256h128l-68 -256h-128z" />
    <glyph glyph-name="quotedblright" unicode="&#x201d;" horiz-adv-x="448" 
d="M135 384l68 256h128l-68 -256h-128zM391 384l68 256h128l-68 -256h-128z" />
    <glyph glyph-name="sterling" unicode="&#xa3;" horiz-adv-x="832" 
d="M391 384h256l-162 -128h-128l-35 -128h512l-34 -128h-640l69 256h-128l34 128h128q68 256 324 256h128q256 0 188 -256h-128q34 128 -94 128h-128q-128 0 -162 -128z" />
    <glyph glyph-name="yen" unicode="&#xa5;" 
d="M357 256l7 28l-41 36q-171 128 -120 320h128q-34 -128 126 -248q224 120 258 248h128q-51 -192 -290 -320l-60 -32l-8 -32h256l-163 -128h-128l-34 -128h-128l34 128h-256l163 128h128z" />
    <glyph glyph-name="Euro" unicode="&#x20ac;" horiz-adv-x="832" 
d="M391 384h512l-162 -128h-384q-35 -128 93 -128h384l-34 -128h-384q-256 0 -187 256h-128l34 128h128q68 256 324 256h384l-162 -128h-256q-128 0 -162 -128z" />
    <glyph glyph-name="cent" unicode="&#xa2;" 
d="M459 640l35 128h128l-35 -128h256l-162 -128h-256q-128 0 -162 -128l-34 -128q-35 -128 93 -128h384l-34 -128h-256l-34 -128h-128l34 128q-256 0 -187 256l34 128q68 256 324 256z" />
    <glyph glyph-name="divide" unicode="&#xf7;" 
d="M101 256l34 128h640l-34 -128h-640zM587 640l-34 -128h-128l34 128h128zM450 128l-34 -128h-128l34 128h128z" />
  </font>
</defs>
</svg>
